<svg version="1.1" id="Layer_1" xmlns="http://www.w3.org/2000/svg" xmlns:xlink="http://www.w3.org/1999/xlink" x="0px" y="0px"
	 width="100%" viewBox="0 0 1024 1024" enable-background="new 0 0 1024 1024" xml:space="preserve">
<path fill="#424955" opacity="1.000000" stroke="none" 
	d="
M466.000000,1025.000000 
	C312.166656,1025.000000 158.833313,1024.984131 5.500067,1025.094116 
	C1.750629,1025.096802 0.905801,1024.249146 0.906913,1020.500000 
	C1.007246,682.166687 1.007246,343.833344 0.906913,5.500028 
	C0.905801,1.750903 1.750902,0.905800 5.500028,0.906912 
	C343.833344,1.007255 682.166687,1.007255 1020.500000,0.906912 
	C1024.249146,0.905800 1025.094360,1.750902 1025.093262,5.500027 
	C1024.992920,343.833344 1024.992798,682.166687 1025.093140,1020.500000 
	C1025.094238,1024.249146 1024.249268,1025.095947 1020.499939,1025.093750 
	C835.833313,1024.986816 651.166687,1025.000000 466.000000,1025.000000 
z"/>
<path fill="#858E9B" opacity="1.000000" stroke="none" 
	d="
M435.831177,657.263916 
	C437.624237,655.971741 439.074677,654.671387 440.760742,653.147461 
	C441.377625,652.605042 441.790771,652.335022 442.601624,652.057251 
	C443.455780,652.056824 443.916412,652.199768 444.655518,652.622681 
	C448.055786,654.208252 450.420349,656.530457 452.775085,658.892395 
	C471.322540,677.496399 489.947662,696.022888 508.500763,714.621338 
	C513.559692,719.692627 514.382141,719.697815 519.368286,714.722534 
	C536.081116,698.045959 552.850830,681.425598 569.408813,664.595642 
	C571.712402,662.254272 574.846497,660.750244 576.535156,657.343262 
	C578.147095,655.119690 580.651428,654.419312 582.346924,652.217407 
	C584.909851,651.399780 587.066833,651.103088 588.302612,654.125244 
	C592.250000,661.210876 598.766663,665.520569 604.058960,670.969116 
	C611.026123,678.142029 611.374939,677.927673 604.631958,685.060120 
	C588.183777,702.458313 571.251160,719.380615 554.289734,736.277161 
	C542.033813,748.486267 530.022644,760.941223 517.917603,773.301636 
	C513.832520,777.472961 513.335022,777.492126 508.858215,772.919922 
	C491.756989,755.453796 474.724152,737.920410 457.557983,720.518372 
	C444.944031,707.731140 432.240387,695.029541 419.398712,682.471802 
	C416.271912,679.414124 416.175995,677.337891 419.422272,674.369995 
	C424.081909,670.110046 428.359589,665.432312 432.963318,660.654724 
	C433.588989,659.090454 433.939301,657.719299 435.831177,657.263916 
z"/>
<path fill="#EB5C4B" opacity="1.000000" stroke="none" 
	d="
M562.505737,356.192566 
	C564.087891,355.496429 564.980713,354.516052 565.823547,353.037292 
	C569.672729,347.697357 574.511902,343.722992 578.807007,339.229370 
	C579.803528,338.186859 580.969543,337.788849 582.672974,338.588196 
	C583.516357,339.436798 584.048340,340.095367 584.890259,340.856018 
	C589.889038,344.494873 594.034241,348.579071 597.829712,353.494934 
	C598.391846,354.146729 598.711731,354.563171 599.300049,355.032715 
	C601.922791,356.419739 603.573364,358.541779 605.376282,360.455048 
	C607.660828,362.879547 607.979492,365.386902 604.581787,367.798431 
	C603.975830,368.286621 603.659790,368.512787 603.236572,369.015808 
	C602.953979,369.585815 602.770508,369.873871 602.337158,370.242249 
	C600.211304,370.900543 599.299438,372.507355 598.109375,374.278564 
	C595.658447,377.878235 592.365540,380.256805 589.705017,383.663391 
	C589.350769,384.359009 589.197327,384.777618 589.023499,385.541565 
	C588.914062,386.093536 588.859009,386.312653 588.622620,386.819153 
	C587.796570,387.750793 587.190491,388.427643 586.480225,389.473572 
	C586.094910,389.907196 585.910706,390.053802 585.402344,390.343445 
	C582.742065,391.374176 581.407593,393.344482 579.839417,395.131683 
	C573.425964,402.440918 566.919800,409.669281 560.105774,416.612152 
	C547.079346,429.884949 534.328308,443.420685 521.556763,456.937134 
	C519.951904,458.635620 518.313354,460.384918 515.230957,459.603821 
	C513.295898,459.324829 512.221497,458.391907 511.203094,457.214966 
	C505.338654,450.437622 497.651398,445.488342 492.184296,438.301666 
	C491.789642,437.782837 491.189667,437.427734 490.334351,436.868958 
	C489.822906,436.564117 489.616058,436.445129 489.158081,436.071655 
	C485.608276,430.392487 480.650909,426.361206 476.454498,421.759216 
	C468.639496,413.188904 460.514557,404.836060 451.734863,396.686646 
	C450.865387,395.032257 450.507843,393.452271 448.707458,392.457489 
	C448.252716,392.117981 448.087189,391.958984 447.753479,391.497986 
	C444.075165,385.747284 439.329407,381.396973 434.831604,376.823547 
	C431.012390,372.940094 427.014343,369.232727 423.238190,364.855896 
	C423.155731,363.684479 423.200562,362.838837 423.175781,361.681885 
	C424.739624,358.982178 426.723816,356.955811 429.472168,355.244690 
	C429.730286,355.037781 430.006409,354.871735 430.042450,354.714722 
	C430.402069,353.451050 431.316254,352.948792 432.480408,352.259644 
	C433.732056,351.194702 434.737854,350.320892 435.866699,349.134155 
	C439.382111,345.477203 442.103088,341.533386 445.633881,338.289703 
	C448.072693,336.049225 449.990601,335.909821 452.350433,338.310730 
	C456.723755,342.760193 461.590546,346.721802 465.676331,351.949463 
	C465.851257,352.268646 465.846527,352.142639 465.783569,352.145966 
	C466.948242,352.680084 467.680328,353.773010 468.738159,354.953735 
	C468.893311,355.234955 468.898956,355.109802 468.836365,355.107635 
	C473.300507,359.017609 477.159241,363.608368 481.683411,367.985291 
	C481.828644,368.299896 481.829742,368.167175 481.763397,368.167725 
	C482.958557,368.660126 483.674469,369.779205 484.730286,370.964355 
	C484.878387,371.250885 484.990417,371.094086 484.911926,371.038147 
	C485.363373,371.349457 485.485565,371.925720 485.822815,372.704956 
	C486.034058,372.909912 486.028229,372.975342 486.060730,372.970764 
	C495.563232,381.357422 503.791107,390.983582 512.743835,399.891724 
	C515.847778,402.980286 517.825317,402.555664 520.430969,399.614197 
	C531.556030,387.055603 543.659790,375.438293 555.638550,363.215790 
	C555.862976,362.946472 555.947021,362.948273 555.947632,362.906250 
	C556.415405,362.363464 556.837585,361.817780 557.661377,361.190002 
	C559.226868,360.582977 560.045837,359.623444 560.879639,358.258392 
	C561.422363,357.456879 561.771667,356.880005 562.505737,356.192566 
z"/>
<path fill="#424A58" opacity="1.000000" stroke="none" 
	d="
M588.507812,654.230469 
	C586.965210,653.781067 585.785217,652.617004 583.824829,653.246948 
	C581.525024,654.265564 577.975586,653.498230 578.607666,657.913086 
	C572.096008,666.705017 563.904785,673.572754 556.466492,681.160461 
	C543.657349,694.226929 530.549316,707.000122 517.704834,720.032532 
	C514.869507,722.909302 513.179749,723.028259 510.152802,719.954834 
	C489.959198,699.451538 469.529968,679.180115 449.152283,658.858521 
	C447.627441,657.337891 445.908142,656.012329 444.094910,654.314331 
	C443.896484,653.676392 443.758331,653.377625 443.246948,653.069763 
	C442.552460,652.998230 442.107056,652.993164 441.328979,652.956055 
	C439.590759,644.002686 433.340912,639.163818 425.907440,635.608337 
	C423.577301,634.493835 422.348969,633.420410 421.735840,630.818298 
	C420.994324,627.671265 419.352386,624.736328 418.067871,621.341553 
	C420.623108,619.286560 422.023254,621.458374 423.581207,622.780029 
	C427.765839,626.329956 431.707489,630.167664 436.143250,633.419556 
	C437.479645,634.399292 438.923096,635.656555 440.652740,634.571045 
	C442.371521,633.492310 441.803223,631.665649 441.630493,630.009583 
	C441.092682,624.853577 439.594025,620.221252 436.667389,615.722595 
	C431.629547,607.978699 427.718506,599.623352 426.652008,590.187134 
	C426.078430,585.112427 429.058594,583.173523 436.055054,584.789551 
	C437.691132,586.468933 439.063446,588.167603 438.953217,590.176147 
	C438.509521,598.259338 443.673035,603.538330 448.486755,608.680115 
	C456.860992,617.625122 464.766479,627.006714 473.317902,635.761780 
	C481.541260,644.180786 490.562469,651.807617 500.328918,658.438416 
	C502.497040,659.910461 503.866943,661.920715 505.456421,663.798889 
	C510.125916,669.316406 514.233154,669.937622 520.170654,666.081909 
	C523.964539,663.618103 527.368530,660.768066 530.213745,657.253845 
	C530.528503,656.865173 530.810608,656.414307 531.224365,656.154907 
	C544.078369,648.098022 552.789917,635.664001 563.634155,625.485352 
	C565.337524,623.886536 567.009766,622.278564 569.079041,621.141479 
	C570.400879,620.414978 571.818115,619.592712 572.522461,618.311584 
	C575.682739,612.563293 580.324280,608.020386 584.479736,603.070190 
	C587.690308,599.245483 585.984314,594.396729 586.909241,589.730835 
	C594.057190,584.815857 600.652527,588.273743 601.296631,596.837830 
	C601.623047,601.177307 600.054504,605.377441 600.443176,609.721924 
	C600.634338,611.858398 600.304138,614.284363 602.705139,615.360107 
	C604.924316,616.354370 606.894653,615.140991 608.728271,613.950317 
	C609.844666,613.225403 610.808716,612.298401 611.738770,611.351074 
	C619.728821,603.211426 627.810730,595.158752 635.340698,586.581299 
	C635.777832,586.083374 635.969727,585.418030 636.296082,584.444641 
	C643.008545,576.975708 648.942505,569.234680 656.203552,562.721191 
	C656.839294,562.150940 657.094238,561.346985 657.498291,560.229004 
	C660.393005,557.610657 662.297485,554.095764 666.694824,553.874268 
	C664.803406,559.852234 663.617554,565.732544 657.903320,570.075867 
	C653.952698,573.078674 649.647339,576.711609 647.510742,582.076660 
	C645.655396,586.735596 643.216248,591.515076 637.607910,593.174316 
	C635.117310,593.911011 634.150574,596.163818 633.149597,598.262329 
	C630.743958,603.305359 627.795044,607.623230 622.000061,609.445190 
	C619.290771,610.297058 617.277954,612.573425 616.282410,615.369507 
	C614.045654,621.651611 610.148743,626.159790 604.438110,629.952759 
	C600.383301,632.645935 597.344666,637.404236 594.909424,641.823242 
	C593.116821,645.076050 591.447205,647.172058 587.659485,647.482361 
	C586.302307,647.593567 584.722412,648.151917 584.181213,649.773987 
	C584.718384,652.317932 590.068298,649.454529 588.507812,654.230469 
z"/>
<path fill="#C8463A" opacity="1.000000" stroke="none" 
	d="
M528.608887,596.395630 
	C529.834045,595.259094 530.815186,594.365234 531.964355,593.182007 
	C532.885193,592.117981 533.647095,591.352234 534.639160,590.358398 
	C544.125305,581.466492 553.231445,572.653015 561.880493,562.916138 
	C563.323547,560.743286 564.753784,559.012573 566.829468,557.423828 
	C567.108276,557.232483 567.230713,557.230347 567.231812,557.169128 
	C568.998962,554.705322 571.256653,552.765930 573.347168,550.673828 
	C577.793335,546.224548 578.521851,546.261719 582.764954,550.767090 
	C583.448853,551.493225 584.023254,552.284424 584.736572,553.427124 
	C585.201904,554.044250 585.448975,554.376343 585.956543,554.880859 
	C587.812073,556.929565 589.626465,558.592651 591.594299,560.573853 
	C592.119873,561.136841 592.405273,561.465942 592.969116,561.968811 
	C593.643066,562.589050 594.048035,563.026367 594.705933,563.633301 
	C595.459229,565.140076 596.419922,566.059998 597.903320,566.920410 
	C604.968567,570.745911 605.040771,575.182129 599.080261,580.239685 
	C595.393738,583.367737 592.119385,586.985901 587.762573,589.895142 
	C586.923462,594.255066 584.053406,596.808350 581.358643,599.506042 
	C569.126831,611.751038 556.791687,623.895203 544.687744,636.264587 
	C536.781982,644.343811 529.349792,652.883606 521.174072,660.710388 
	C515.331848,666.303284 514.348267,666.271423 508.686646,660.593689 
	C495.760620,647.630920 482.621277,634.873718 469.945526,621.670715 
	C460.516602,611.849548 450.844330,602.268433 441.458771,592.406250 
	C439.435089,590.279907 438.470978,587.401001 435.824036,585.362671 
	C431.878540,583.705627 429.189026,581.215942 426.935486,578.017273 
	C422.906311,572.298401 423.430359,570.285950 430.435364,567.247925 
	C436.714630,562.456604 441.682037,556.867188 446.939758,551.110291 
	C449.325623,549.482971 450.510986,545.201477 454.581116,548.464233 
	C455.168091,549.042175 455.467804,549.388550 456.061340,549.916443 
	C457.153748,550.707764 458.078949,551.183960 458.729126,552.390076 
	C460.236389,555.162231 462.388947,556.944824 464.776093,558.952515 
	C469.176300,563.240479 473.427338,567.213135 477.531860,571.813660 
	C477.730591,572.100464 477.751556,572.242432 477.822754,572.251343 
	C479.244263,573.153870 480.362854,574.291626 481.553345,575.839355 
	C481.742340,576.125854 481.744476,576.253357 481.808228,576.255554 
	C486.699493,580.599243 491.510101,584.957397 495.673431,590.428101 
	C497.078003,592.737549 498.603516,594.470825 500.855957,595.975586 
	C504.742035,599.793884 508.497253,603.286682 511.973877,607.040466 
	C514.066223,609.299622 515.851685,609.073303 517.836487,607.130615 
	C521.377441,603.664734 524.848206,600.128418 528.608887,596.395630 
z"/>
<path fill="#ADADAF" opacity="1.000000" stroke="none" 
	d="
M657.043335,496.768799 
	C658.162292,497.228302 658.935547,497.781921 659.928589,498.620300 
	C661.519714,498.703796 662.954407,499.636169 664.584778,498.738495 
	C665.207764,498.394440 665.529297,497.986206 666.140869,497.316650 
	C667.762207,494.883545 669.762512,493.328857 671.771362,491.319397 
	C673.083374,489.875214 674.138672,488.656921 675.493774,487.256897 
	C677.918823,483.202240 681.523621,480.703796 684.824890,477.470795 
	C685.109070,477.282288 685.129944,477.143921 685.196472,477.122192 
	C689.158325,472.428131 692.858032,467.578156 697.786926,463.393250 
	C699.096375,461.971527 700.139587,460.759247 701.429810,459.303589 
	C701.843567,458.521088 702.112732,458.057495 702.888916,457.691895 
	C703.151489,457.609375 703.285828,457.330292 703.409546,457.237061 
	C704.107361,455.981537 704.856506,455.129120 706.597900,455.805847 
	C709.108521,458.223572 711.353516,460.399261 713.781677,462.858398 
	C714.491394,463.565125 714.987366,464.020782 715.645142,464.791626 
	C715.856445,465.054443 715.943298,465.049805 715.945312,465.093262 
	C717.209473,466.159149 718.338989,467.319031 719.671875,468.766602 
	C720.170471,469.246887 720.438232,469.468048 720.830627,469.920197 
	C721.844910,470.857849 722.665344,471.635223 723.586548,472.790649 
	C726.450439,475.234100 729.091187,477.424316 730.984985,480.675720 
	C730.878357,482.062653 730.214294,482.737610 729.204712,483.594299 
	C728.925659,483.817688 728.924377,483.926971 728.869751,483.927673 
	C728.440247,484.466705 728.001343,484.946167 727.237061,485.563354 
	C724.971497,488.326202 722.963745,490.889099 720.677979,493.660706 
	C720.222534,494.433014 719.954712,494.933258 719.155701,495.347778 
	C717.373901,497.150116 715.866028,498.857727 714.086914,500.773743 
	C713.098816,501.870209 712.318848,502.699463 711.237671,503.714050 
	C707.991028,507.122711 704.994995,510.298981 701.704834,513.663086 
	C700.849243,515.401855 699.567444,516.374329 698.231079,517.731323 
	C697.983154,517.960510 698.007874,517.997864 697.986328,517.991943 
	C695.504395,520.771790 692.444397,523.002563 690.110107,526.371521 
	C689.826965,526.575928 689.744629,526.765198 689.650208,526.806885 
	C687.403137,530.238647 684.117065,532.575745 681.255920,535.784546 
	C678.830444,538.541016 676.641907,541.040466 674.249390,543.804077 
	C673.090515,545.154968 672.659912,546.628235 671.272949,547.782104 
	C670.395081,548.744385 669.724060,549.473450 668.901245,550.458862 
	C664.490967,555.530640 662.440002,555.808777 657.684326,551.384399 
	C650.777100,544.958374 644.023987,538.363953 637.224426,531.821289 
	C636.738770,531.353943 636.253784,530.927185 635.251343,530.634216 
	C633.924805,530.379822 633.104980,529.865173 631.982605,529.161011 
	C631.171387,528.467468 630.655823,527.981262 629.809204,527.327332 
	C629.393799,526.900024 629.248169,526.711792 628.945312,526.209167 
	C628.022888,523.097290 626.602966,520.670837 624.514160,518.286865 
	C624.281677,517.856567 624.165955,517.696777 623.829285,517.335388 
	C622.802429,516.422913 622.146240,515.614929 621.892212,514.194946 
	C621.844971,512.947266 622.812622,512.314819 622.414429,511.035889 
	C622.204346,510.498260 622.163635,510.265839 622.170532,509.678711 
	C623.091614,507.322205 624.692871,506.854980 626.692810,507.168304 
	C634.146790,508.336121 640.910034,506.974823 647.432190,502.853516 
	C650.535645,500.892456 654.522034,500.325195 657.043335,496.768799 
z"/>
<path fill="#C5C6C5" opacity="1.000000" stroke="none" 
	d="
M355.487396,421.422119 
	C362.999786,413.447021 370.544769,405.927612 377.854370,398.186005 
	C380.532684,395.349396 382.316498,394.657837 385.432190,397.890900 
	C405.651917,418.872467 426.038544,439.693817 446.466705,460.473022 
	C448.671967,462.716156 448.435211,464.192413 446.417450,466.254395 
	C441.063965,471.725189 435.849548,477.332001 430.438904,483.197968 
	C429.089935,489.407776 424.343048,491.631012 419.313141,489.283783 
	C411.884125,485.817078 407.759064,478.920135 402.328033,473.469421 
	C394.962189,466.076813 387.857666,458.385498 380.743317,450.725586 
	C377.656464,447.402039 374.549072,444.149017 372.100220,439.873444 
	C371.703308,439.084167 371.476807,438.619995 370.997986,438.061279 
	C368.474457,436.761963 366.757874,434.954773 365.208801,432.573608 
	C364.984436,431.830048 364.808380,431.426056 364.393250,430.989502 
	C360.525299,428.586426 357.084991,426.036438 355.487396,421.422119 
z"/>
<path fill="#E8E1DB" opacity="1.000000" stroke="none" 
	d="
M576.741028,467.333435 
	C578.603638,462.441681 582.750549,459.973694 585.901367,456.282166 
	C586.564392,455.536224 587.021973,455.038300 587.848511,454.432312 
	C588.344849,453.974915 588.554810,453.700836 588.964966,453.261719 
	C589.558594,452.529602 590.018677,452.022095 590.803223,451.350647 
	C594.698486,447.265503 598.324890,443.394073 602.238403,439.318298 
	C604.403076,436.043610 607.356079,433.917236 609.860413,431.011292 
	C610.282349,430.722748 610.387573,430.541870 610.751831,430.183533 
	C611.535156,429.452332 612.078491,428.916656 612.768311,428.127014 
	C613.048401,427.596344 613.230103,427.347717 613.700928,427.053680 
	C614.875854,426.171539 615.726501,425.275757 616.737183,424.109070 
	C616.915039,423.856445 617.093872,423.411499 617.276733,423.256470 
	C618.768616,420.987427 620.467712,419.257202 622.880554,417.815857 
	C623.199768,417.716614 623.367004,417.392242 623.523315,417.298096 
	C626.414001,412.472839 631.041443,409.482361 634.721375,405.147400 
	C636.310913,403.413330 637.688416,401.957642 639.355591,400.320557 
	C643.603699,394.439636 644.386719,394.318939 649.167786,399.198822 
	C652.843628,402.950500 656.859619,406.376099 660.270264,410.862030 
	C660.416443,411.198242 660.686523,411.315979 660.738220,411.453949 
	C662.939331,412.674530 663.707886,415.072754 665.711792,416.768829 
	C665.943542,417.022949 666.002502,417.013336 665.992554,417.041504 
	C670.881836,420.260529 670.964355,420.988892 666.862671,425.135193 
	C662.093811,429.956055 657.228699,434.681122 652.291870,439.843811 
	C651.585938,440.781464 651.103027,441.432098 650.567261,442.383545 
	C649.852234,448.881897 644.376709,451.539429 640.656982,455.902222 
	C639.072876,456.707855 637.462524,456.926971 637.016846,459.051605 
	C636.720337,459.661591 636.531677,459.938721 636.283325,460.159088 
	C630.255066,465.507477 630.275330,467.631073 636.797668,472.351227 
	C639.223145,474.106537 640.916748,475.779297 638.900024,479.154053 
	C636.781982,480.493500 634.726318,480.140228 632.784363,480.178314 
	C614.147095,480.543671 595.928772,478.117035 578.332336,471.734436 
	C577.533875,471.444824 576.929932,470.880219 576.342773,469.753754 
	C576.149719,468.768188 576.246826,468.213989 576.741028,467.333435 
z"/>
<path fill="#515B6A" opacity="1.000000" stroke="none" 
	d="
M430.419983,566.960327 
	C425.822571,573.695618 426.030914,575.142212 432.711212,581.028137 
	C433.802551,581.989685 434.835419,583.017517 435.989258,584.324829 
	C436.209961,584.879089 436.336792,585.123230 436.196960,585.682129 
	C434.279388,586.104126 432.611450,586.101562 430.983276,586.354858 
	C429.791809,586.540283 428.392059,587.368286 428.916016,588.630066 
	C430.299042,591.960632 428.794098,596.076904 430.732727,598.792358 
	C435.327942,605.228821 435.817719,613.956238 442.411285,619.188049 
	C443.347168,619.930603 443.946472,621.104431 443.681274,622.293579 
	C442.961151,625.523010 443.890900,628.532715 444.580994,631.605164 
	C445.151398,634.144897 445.237427,636.620605 442.456665,638.101257 
	C439.973969,639.423096 438.166199,638.255615 436.170807,636.736328 
	C429.952271,632.001465 424.338379,626.596741 418.310486,621.157959 
	C418.035614,620.973511 418.028687,620.990234 418.032715,620.981689 
	C415.196960,616.963440 410.565979,615.098145 407.181580,611.508667 
	C395.828827,599.468018 385.143738,586.939514 375.263977,573.236511 
	C375.015472,572.976685 374.998779,573.000916 375.011230,572.992798 
	C374.316162,572.242615 373.521362,571.555664 373.471069,570.059753 
	C374.803558,567.969360 376.364807,566.445068 376.945770,564.279846 
	C377.255646,563.124939 377.912872,561.911560 378.923370,561.510559 
	C387.120819,558.257385 388.226624,549.057190 393.961304,543.752319 
	C396.096375,541.777283 394.873383,538.150818 397.665588,536.098755 
	C404.184448,541.650391 409.977905,547.705627 415.875092,553.663452 
	C420.418304,558.253540 423.713715,564.267578 430.419983,566.960327 
z"/>
<path fill="#65707F" opacity="1.000000" stroke="none" 
	d="
M307.740692,466.153229 
	C309.537689,464.087921 311.123322,462.285858 312.957245,460.268341 
	C314.016602,458.754181 315.247559,457.964630 316.745209,457.021973 
	C319.460419,455.045685 321.122345,456.477753 322.847717,458.636169 
	C324.768219,460.885223 326.709320,462.650360 328.752808,464.773376 
	C328.979156,465.010010 329.002441,464.997559 328.996338,465.009216 
	C329.823914,465.820862 330.649048,466.629089 331.619781,467.777161 
	C332.103943,468.260498 332.367401,468.476685 332.805389,468.879791 
	C333.490143,469.514282 333.966553,469.994904 334.607544,470.785400 
	C334.815552,471.052765 334.876373,471.105804 334.902466,471.136597 
	C337.045593,474.335114 339.877563,476.852783 342.772339,479.764465 
	C347.558044,483.795471 352.022308,487.676453 355.836395,492.690186 
	C356.536041,493.527985 357.073151,494.060181 357.837097,494.765930 
	C358.327789,495.442047 358.603760,495.932892 358.952393,496.697815 
	C359.233917,497.208130 359.453247,497.434204 359.865906,497.799744 
	C360.380707,498.348602 360.712616,498.747833 361.133118,499.393738 
	C363.383362,503.535278 364.147400,507.351562 360.902649,511.140350 
	C359.172241,513.160889 359.028442,515.675415 359.099945,518.227783 
	C359.192444,521.530090 357.617554,523.549988 354.312286,524.192261 
	C350.384827,524.955383 347.063599,526.720215 345.117645,530.379517 
	C343.845032,532.772644 341.544281,532.449524 339.077057,532.857788 
	C336.330719,532.522400 335.289795,530.469299 333.483093,528.795898 
	C332.166107,526.275085 331.939392,523.298767 328.151062,523.041565 
	C322.375214,519.118591 319.711090,512.886597 314.825256,508.132446 
	C313.283936,506.229980 313.399963,503.359619 310.142822,502.965332 
	C308.514130,501.436035 306.673248,500.628967 305.457916,498.657532 
	C304.498444,497.410339 304.123138,496.118530 302.586365,495.368317 
	C299.589020,492.554413 297.300323,489.611145 295.302673,485.991028 
	C294.741913,484.745026 294.340942,483.826630 293.861877,482.617004 
	C292.964905,480.913666 293.306213,479.707672 294.732635,478.354065 
	C295.027100,478.065979 295.028595,478.026855 295.048187,478.026733 
	C295.815277,477.178284 296.604004,476.371918 297.746094,475.444397 
	C298.434479,474.878693 298.858215,474.524353 299.517700,474.025757 
	C302.660645,471.721588 304.950653,468.918671 307.740692,466.153229 
z"/>
<path fill="#363C4A" opacity="1.000000" stroke="none" 
	d="
M589.491211,385.744934 
	C600.358643,392.117584 602.589600,403.770691 593.790527,412.124115 
	C585.634216,419.867310 578.453857,428.512878 570.154724,436.140442 
	C565.010803,440.868103 560.964355,447.023712 556.489502,452.578918 
	C553.117920,456.764374 548.415344,459.464508 545.387756,463.972443 
	C543.162781,467.285370 541.900574,471.028076 539.496277,474.317169 
	C533.563232,482.433533 525.792908,487.882141 517.507874,493.339325 
	C505.493378,501.253021 494.145508,510.168976 484.692017,521.395020 
	C478.942261,528.222778 471.591278,533.773376 463.604156,537.955200 
	C456.037659,541.916870 443.916595,536.524963 438.344818,528.520813 
	C432.982147,520.816956 431.042236,512.684631 432.057922,503.099670 
	C436.818298,503.859009 439.939850,507.290375 443.173950,511.115417 
	C443.695801,513.901184 445.162018,515.864563 446.336975,518.340576 
	C447.995667,524.596069 456.809631,528.114014 461.527863,524.435974 
	C470.818512,517.193542 479.486053,509.224182 488.140717,501.227753 
	C497.248108,492.813080 505.995941,483.899658 517.259399,478.129333 
	C524.038391,474.656403 527.625732,468.104858 531.809814,462.157379 
	C538.221558,453.043457 546.678528,445.575073 553.268860,436.725952 
	C562.231995,424.690643 574.368286,415.758331 583.344360,403.842224 
	C586.748291,399.323303 587.103088,397.592438 583.769775,391.875244 
	C583.706421,390.720154 584.043945,390.051361 584.672974,389.088501 
	C584.876038,388.761932 584.906433,388.896729 584.838867,388.911316 
	C585.897827,388.284515 586.678284,387.269073 587.715637,386.082458 
	C587.879517,385.810699 587.885620,385.880310 587.850708,385.878967 
	C588.233093,385.597748 588.691711,385.483002 589.491211,385.744934 
z"/>
<path fill="#A09DA1" opacity="1.000000" stroke="none" 
	d="
M519.204224,541.208618 
	C513.395386,533.408752 513.439575,533.452209 520.163025,526.617065 
	C529.332703,517.295105 538.426697,507.898804 547.858765,498.418823 
	C552.095825,498.481171 556.540527,496.861511 558.861572,502.053955 
	C560.436584,505.577271 564.629333,507.678192 564.393188,512.280212 
	C564.294312,514.207764 565.592834,515.611450 566.782043,517.042419 
	C570.205261,521.161438 570.296204,525.006348 566.898376,529.214050 
	C566.012817,530.310730 565.543030,531.328857 565.460571,533.010986 
	C565.365417,534.612976 564.461609,535.511902 564.043091,536.980469 
	C563.914734,537.556702 563.860413,537.789001 563.664307,538.354187 
	C563.158691,539.329956 562.636536,539.823669 561.715088,540.386292 
	C559.534790,541.633728 558.376770,543.409790 557.353516,545.180969 
	C554.913025,549.405212 551.608093,552.600830 546.799927,554.560913 
	C546.449280,554.528137 546.595276,554.599548 546.628906,554.525635 
	C545.803894,556.523193 543.597412,557.150879 541.860474,558.775146 
	C541.096375,559.149231 540.657959,559.378723 540.115967,559.843262 
	C538.928284,561.018005 537.552490,561.629089 536.460144,560.565796 
	C530.342224,554.610657 523.751160,549.066650 519.204224,541.208618 
z"/>
<path fill="#C5C6C5" opacity="1.000000" stroke="none" 
	d="
M576.548462,468.901642 
	C583.721558,470.753021 590.573181,472.400970 597.323608,474.392212 
	C602.102539,475.801910 606.791931,477.033508 611.876831,477.035095 
	C620.697449,477.037811 629.517883,477.561798 638.691528,477.930176 
	C641.730286,476.707794 642.461121,479.050598 643.861206,480.730835 
	C644.195190,481.100586 644.346680,481.229614 644.733459,481.542236 
	C645.250305,482.016998 645.489197,482.339844 645.797485,482.977356 
	C646.040039,483.865601 646.189392,484.461853 646.911316,485.105530 
	C647.480591,485.589691 647.758484,485.915009 648.145813,486.566895 
	C649.251526,491.677948 652.785095,494.291168 656.982849,496.616699 
	C657.321350,496.607727 657.386963,496.609528 657.388000,496.642090 
	C658.451721,501.501709 656.340210,503.788330 651.570190,504.027435 
	C646.766907,504.268188 644.106628,509.039154 638.976318,509.514893 
	C635.196289,509.865387 631.500977,510.334595 627.746033,509.839172 
	C625.469971,509.538849 623.423584,509.560577 621.560059,511.894928 
	C619.525330,512.748840 618.573914,511.546844 617.455933,510.602570 
	C614.734436,508.303802 611.953064,505.997253 609.669983,503.318420 
	C606.198303,499.244873 602.477661,497.541077 597.093567,500.046234 
	C594.951477,499.062744 594.047913,497.622528 593.960632,495.592804 
	C593.861328,493.285400 592.753540,491.316742 590.994873,490.011505 
	C585.331055,485.807922 580.393982,480.581421 573.740845,477.751984 
	C569.540405,475.965576 571.547913,473.811768 573.793884,471.511658 
	C574.360657,471.004669 574.647156,470.708527 575.164734,470.206726 
	C575.483154,469.496246 575.736511,469.104614 576.548462,468.901642 
z"/>
<path fill="#AC3C34" opacity="1.000000" stroke="none" 
	d="
M442.177612,512.607239 
	C439.697327,508.383026 435.646149,506.218964 432.358276,502.811432 
	C428.877747,499.436493 428.769714,496.225494 432.098938,492.676697 
	C432.117004,487.828644 435.542542,486.147186 439.127563,484.225525 
	C440.456635,483.553558 441.584778,483.119293 442.363892,482.337311 
	C452.522461,472.141052 462.631500,461.895416 472.893066,451.359253 
	C473.627045,450.295746 473.841400,449.363312 474.367554,448.178284 
	C478.726898,444.724884 480.499237,439.591858 484.268463,436.101288 
	C485.759674,434.720306 487.147827,433.235138 489.732666,434.676392 
	C490.215698,434.874756 490.402100,434.853821 490.867188,434.872223 
	C491.897705,435.848633 492.627258,436.995392 491.999451,438.079865 
	C489.629700,442.173096 492.037567,444.567413 494.903046,446.833435 
	C498.390320,449.591095 501.942810,452.253845 504.848724,455.683319 
	C506.972351,458.189514 510.295929,458.593353 513.320068,460.244873 
	C514.953369,463.066742 513.697754,465.009064 511.996521,466.721741 
	C503.736511,475.037079 496.484772,484.318573 487.313873,491.779144 
	C483.097931,495.208862 480.077698,499.963989 475.980804,503.606750 
	C474.656799,504.784027 473.743134,506.582214 471.280029,506.576538 
	C468.726013,504.762085 469.523987,502.940979 470.348663,500.744934 
	C471.833740,496.790405 473.913116,492.817566 472.694946,488.356598 
	C471.509399,484.014801 469.015717,480.219788 466.877838,476.354797 
	C464.718323,472.450623 461.132721,472.189178 457.714966,475.216156 
	C450.895569,481.255859 443.913513,487.135071 438.277893,494.404144 
	C436.115082,497.193878 436.308167,499.446777 438.737885,501.822083 
	C440.518677,503.562927 442.272797,505.336395 443.924408,507.206787 
	C445.345032,508.815613 446.193237,510.505554 444.682617,512.861938 
	C443.705109,513.497803 443.048096,513.402283 442.177612,512.607239 
z"/>
<path fill="#E8E1DB" opacity="1.000000" stroke="none" 
	d="
M434.422211,313.572784 
	C428.654388,307.815338 423.169037,302.269836 417.600616,296.809052 
	C416.081848,295.319611 415.480835,294.190308 417.288696,292.381500 
	C424.795258,284.871063 432.191620,277.250366 439.619080,269.661011 
	C441.334869,267.907867 442.847382,267.884766 444.656433,269.712067 
	C452.013763,277.143585 459.399689,284.550049 466.928650,291.806335 
	C468.928650,293.733948 468.557648,294.911469 466.841064,296.640045 
	C459.821594,303.708588 452.810364,310.789795 445.979919,318.039459 
	C443.107605,321.088043 440.988861,321.203003 438.587189,317.629059 
	C437.593018,316.149628 435.996155,315.075226 434.422211,313.572784 
z"/>
<path fill="#3E3946" opacity="1.000000" stroke="none" 
	d="
M526.578491,349.382874 
	C523.991882,348.472351 522.171204,346.931335 522.452759,344.568573 
	C522.857178,341.173981 521.255249,338.693298 518.806641,337.517059 
	C514.651672,335.521179 513.550537,331.156830 510.501770,328.365417 
	C508.453644,326.490234 509.778656,324.105255 511.214966,322.567657 
	C518.699402,314.555450 526.065552,306.397491 534.025635,298.875183 
	C541.524231,291.789062 548.196716,283.953979 555.484375,276.689514 
	C563.681335,268.518616 571.623962,260.093109 579.771545,251.871841 
	C582.237000,249.384048 585.073730,249.792542 588.027100,251.356461 
	C591.392761,253.138626 593.369995,256.340210 595.919250,258.891449 
	C599.783997,262.759277 603.443359,266.696899 607.878174,270.046082 
	C613.144165,274.022980 613.007629,278.526428 608.344177,283.066681 
	C605.643677,285.695831 604.533142,289.114227 602.741394,292.210175 
	C598.529175,299.488342 595.579163,307.531342 589.087280,313.567322 
	C579.895752,322.113373 572.046082,332.055237 563.230347,340.925781 
	C558.085388,346.102722 554.042358,353.022308 546.243958,355.640411 
	C540.386719,357.606812 535.572449,357.457458 531.415405,352.577362 
	C530.198425,351.148743 528.625366,350.230804 526.578491,349.382874 
z"/>
<path fill="#ADADAF" opacity="1.000000" stroke="none" 
	d="
M573.763428,471.377197 
	C573.644226,472.360474 573.214233,473.420135 572.617493,474.890991 
	C574.286072,475.116211 576.056580,474.416840 577.478760,475.843323 
	C581.547668,479.924469 586.317993,483.153381 590.960815,486.539856 
	C595.069763,489.536865 597.272034,493.589417 597.001587,499.171753 
	C598.143433,502.138306 595.879456,503.286011 594.662170,504.835083 
	C593.159058,506.747772 590.583862,507.772400 589.900208,510.808472 
	C588.506226,513.173462 586.663330,514.684875 584.789673,516.632324 
	C583.786255,517.611755 582.922424,518.252136 582.167725,519.473999 
	C577.668823,523.872253 574.227234,528.798218 569.642517,532.654053 
	C568.363464,533.729736 567.349915,535.061523 565.092896,534.804443 
	C564.520813,534.556641 564.315613,534.408081 564.061646,533.882629 
	C564.039368,532.845825 563.843689,532.065552 564.126160,531.544434 
	C567.277832,525.731079 568.463928,520.588196 562.018860,515.651123 
	C559.993958,514.100037 562.014587,509.804504 559.594055,506.665100 
	C556.541748,502.706360 552.930542,500.436401 548.369629,498.527710 
	C548.366638,498.003754 548.568848,497.704224 548.985168,497.236023 
	C549.885498,496.128967 550.697876,495.302673 551.742676,494.218140 
	C558.767883,486.108063 565.856812,478.539001 573.763428,471.377197 
z"/>
<path fill="#565E6D" opacity="1.000000" stroke="none" 
	d="
M658.961121,560.683594 
	C658.561523,564.453979 655.822021,566.276428 653.715210,568.550415 
	C648.695129,573.968872 643.683594,579.395203 638.344116,584.913879 
	C636.138489,587.093445 633.973267,588.296692 630.998718,587.777649 
	C629.018799,587.432190 627.051697,587.959106 625.128967,588.523376 
	C618.255981,590.540588 608.309998,587.273682 604.014526,581.568787 
	C602.916199,580.110046 602.074463,578.621033 602.304321,576.579041 
	C603.054504,569.914551 604.701965,563.651428 609.690918,558.257141 
	C613.462524,553.079773 617.611938,548.857910 622.683472,545.112793 
	C625.502930,549.300781 627.448669,554.324341 633.929810,553.554199 
	C639.105469,559.900818 646.607056,556.237549 652.893799,557.845642 
	C655.094421,558.408447 657.533752,557.888977 658.961121,560.683594 
z"/>
<path fill="#616A79" opacity="1.000000" stroke="none" 
	d="
M338.740234,531.380127 
	C340.630615,530.959595 342.312775,530.768372 343.067139,528.912842 
	C345.040314,524.059265 349.058228,522.214905 353.858673,521.659363 
	C356.658173,521.335327 357.099396,519.610657 356.547241,517.432129 
	C355.765564,514.348083 356.573822,511.721130 358.838226,509.762787 
	C361.941162,507.079163 359.417114,503.317535 361.106995,500.028015 
	C366.772156,502.760559 370.383057,507.961945 374.944397,512.593994 
	C376.743866,514.929443 378.726257,516.652405 380.778564,518.762878 
	C381.258636,519.187439 381.488129,519.400879 381.854187,519.810669 
	C382.949646,520.927063 383.763184,521.960876 384.529724,523.052856 
	C388.725098,529.029358 388.583496,531.428345 382.618866,535.642273 
	C376.732086,539.801331 371.025238,543.992798 363.260742,545.152710 
	C358.822388,545.815735 354.860016,546.982117 350.227600,545.013306 
	C345.650146,542.342834 342.841919,538.264404 339.335815,534.914490 
	C338.465546,534.083008 338.194763,532.942810 338.740234,531.380127 
z"/>
<path fill="#515B6A" opacity="1.000000" stroke="none" 
	d="
M609.655396,558.056946 
	C608.262756,562.765747 606.604370,567.605042 604.817810,572.396545 
	C603.878723,574.914978 603.975220,577.234680 605.418396,579.515991 
	C608.561646,584.484924 618.709900,588.363098 624.038269,586.070862 
	C628.475342,584.162231 632.939148,586.355957 637.645752,585.085083 
	C632.461975,596.140442 622.289429,603.245667 614.261902,612.221497 
	C611.807556,614.965820 609.082520,617.283081 605.420532,618.453064 
	C600.996338,619.866394 598.804504,618.843506 598.232117,614.142822 
	C597.731140,610.029053 597.404480,605.760925 598.630493,601.757141 
	C600.291931,596.331604 597.213013,592.919250 594.073914,589.490540 
	C592.233765,587.480652 590.419373,589.211853 588.161255,590.027466 
	C589.615356,585.868958 593.466248,583.354858 596.555542,580.180908 
	C602.259033,574.321106 602.325806,574.386108 598.248291,567.380554 
	C603.303406,565.820251 605.502869,560.971130 609.655396,558.056946 
z"/>
<path fill="#565E6D" opacity="1.000000" stroke="none" 
	d="
M349.759125,543.389160 
	C363.435364,545.593384 374.107605,540.070862 383.598999,531.225464 
	C388.059357,527.068726 383.086578,524.130066 382.096436,520.328064 
	C386.668335,522.644409 389.517517,527.235535 393.711548,530.879395 
	C394.872131,532.218994 395.375244,533.647400 396.803375,534.771973 
	C397.275238,535.178040 397.502045,535.388672 397.859924,535.796753 
	C398.519470,540.662354 397.357483,544.571777 393.829529,548.064941 
	C391.052155,550.815002 389.860840,554.997742 387.645813,558.046143 
	C384.274750,562.685547 379.172211,566.066956 374.406403,569.990112 
	C372.026703,570.253296 371.438202,568.581055 370.246643,567.189392 
	C370.026947,566.939209 370.016479,566.469482 370.004578,566.234863 
	C367.366486,562.282715 362.344421,560.955933 360.254578,556.211792 
	C359.839111,555.704773 359.633179,555.478088 359.228760,555.124023 
	C355.192688,551.813110 350.893646,549.018860 349.759125,543.389160 
z"/>
<path fill="#363C4A" opacity="1.000000" stroke="none" 
	d="
M582.780640,515.200439 
	C584.520325,513.425354 586.048584,511.866394 587.880920,510.174622 
	C591.605469,507.880829 594.337280,504.937012 597.255737,502.189545 
	C600.632568,499.010590 603.597717,499.135681 607.377136,501.892456 
	C616.275391,508.382904 623.236511,516.818481 631.016113,524.970642 
	C631.354309,525.164551 631.286011,525.198669 631.270569,525.163818 
	C630.976929,526.252197 631.625977,526.587708 632.847778,526.813049 
	C633.714539,527.407776 634.301575,527.863770 635.057251,528.546509 
	C636.906860,533.244690 635.793030,535.283691 630.136719,537.142700 
	C628.567200,533.757324 626.365234,531.855652 623.307983,530.269714 
	C620.259094,528.688171 618.078979,525.730835 616.185852,522.748535 
	C612.968445,517.679932 608.423767,514.211487 602.920349,511.947113 
	C597.949524,509.901917 595.118408,510.734772 592.847656,515.624695 
	C591.396912,518.748718 589.552917,521.476868 586.910217,523.466492 
	C580.428894,528.346313 576.889954,535.749023 571.196472,541.279236 
	C568.528076,543.871155 565.867065,546.237244 561.220886,541.459961 
	C562.727173,547.394043 558.863098,549.444519 557.328430,552.646423 
	C554.687988,558.155640 550.719666,554.348938 546.913208,554.644653 
	C549.777161,548.598938 555.000244,544.328979 559.827393,539.268555 
	C560.549988,538.460327 561.077148,537.927124 561.788696,537.181458 
	C561.979797,536.975220 562.000000,537.000000 561.987549,536.989502 
	C562.873230,536.141052 563.742188,535.274170 564.730957,534.101624 
	C569.780823,528.715454 574.658569,523.583435 579.798584,518.244019 
	C580.838623,517.107422 581.734680,516.291443 582.780640,515.200439 
z"/>
<path fill="#616A79" opacity="1.000000" stroke="none" 
	d="
M629.620117,537.217529 
	C631.796997,534.639771 633.896545,532.388306 635.178711,529.140747 
	C642.553345,530.542542 645.535950,537.648010 651.018311,541.717407 
	C654.427673,544.248108 657.233459,547.588623 660.330750,550.544006 
	C662.793030,552.893433 665.370972,553.530396 668.423889,550.826904 
	C668.832642,551.906067 668.300415,552.824951 667.236206,553.846497 
	C663.971008,555.652954 662.971497,559.488708 659.328735,560.866760 
	C652.497375,560.698303 646.006470,558.975891 639.409851,560.364075 
	C638.416931,560.573059 637.035645,560.850281 636.600525,559.997742 
	C634.191101,555.276184 630.284424,555.146606 625.701416,555.589478 
	C623.470276,555.805054 622.504333,553.526428 622.604004,551.278748 
	C622.684814,549.456604 622.867920,547.639038 623.000610,545.407043 
	C623.158386,544.693787 623.321228,544.392883 623.574585,543.851562 
	C623.722412,543.043335 623.925659,542.534546 624.519592,541.942688 
	C626.810120,540.891479 628.291504,539.353149 629.620117,537.217529 
z"/>
<path fill="#363C4A" opacity="1.000000" stroke="none" 
	d="
M475.268616,448.490021 
	C474.567261,449.447571 474.075653,450.102325 473.308594,450.906677 
	C473.184631,444.229218 469.158173,439.130157 464.480469,435.482269 
	C459.696411,431.751404 455.938843,427.211487 451.693939,423.081848 
	C445.993256,417.535980 441.064941,411.322113 436.942719,404.468170 
	C433.532837,398.798584 434.102112,392.595032 438.767792,387.879700 
	C439.463898,387.176178 440.116913,386.429993 440.935852,385.402283 
	C444.739746,384.672272 445.197510,388.189178 447.177368,390.316956 
	C446.989563,394.794617 448.664886,398.197113 450.298798,401.945801 
	C455.080353,412.916107 465.929382,418.550903 472.149078,428.156036 
	C473.759705,430.643372 475.814819,432.880798 477.865784,435.081024 
	C481.748840,439.246582 481.660278,439.723419 477.939575,444.525696 
	C477.045044,445.680237 476.115326,446.844299 475.268616,448.490021 
z"/>
<path fill="#363C4A" opacity="1.000000" stroke="none" 
	d="
M439.083771,484.164124 
	C437.263214,486.760803 435.035675,489.372131 432.529053,492.181580 
	C431.149689,490.488861 430.361603,488.406158 427.389099,490.315704 
	C423.408203,492.872925 416.603088,492.235748 413.002655,489.050507 
	C408.898529,485.419586 405.014404,481.612152 399.571930,479.871155 
	C397.552704,479.225220 395.940491,477.602875 394.851685,475.614624 
	C392.581055,471.468292 389.799194,467.845825 385.198029,465.981934 
	C383.268219,465.200165 382.210052,463.379486 381.118103,461.719818 
	C376.815369,455.180054 371.604889,449.018402 371.964996,440.004395 
	C378.519928,444.158203 383.401154,450.537048 388.975220,456.183014 
	C398.536682,465.867767 407.719818,475.925537 417.257660,485.634308 
	C422.468414,490.938446 422.647522,490.758362 427.909180,485.521393 
	C428.498047,484.935242 429.127136,484.389526 430.017822,483.668121 
	C432.834167,486.956421 435.837311,484.540619 439.083771,484.164124 
z"/>
<path fill="#424A58" opacity="1.000000" stroke="none" 
	d="
M349.702667,542.829041 
	C351.975342,547.556152 356.350891,550.201050 358.946411,554.656250 
	C355.382324,554.951538 353.594086,552.065552 351.446228,549.838623 
	C347.744080,546.000122 344.039795,542.186646 339.494141,539.318542 
	C334.460632,536.142639 333.125061,529.662659 328.032532,526.523682 
	C326.691132,525.696838 325.865509,523.256714 324.085571,524.125305 
	C322.118958,525.084961 323.397461,527.041016 323.986237,528.522766 
	C324.730408,530.395569 324.619507,532.311646 323.385376,533.715515 
	C321.853149,535.458496 320.852722,533.231689 319.624237,532.715515 
	C316.388824,531.356140 314.208923,533.461121 312.026215,535.183411 
	C310.011963,536.772827 308.045441,538.222778 305.302277,537.868286 
	C304.284607,537.736816 303.179504,537.514954 303.002777,536.353821 
	C302.817169,535.134399 303.883362,534.678894 304.840027,534.352112 
	C308.144836,533.223022 311.451935,532.098877 314.778320,531.035767 
	C316.315979,530.544373 317.687866,529.774536 317.758942,528.074768 
	C318.070618,520.624817 319.024139,512.980591 312.038422,507.513153 
	C306.847046,503.450073 301.933624,499.124481 298.071411,493.662354 
	C296.488373,491.423584 294.942902,489.370728 295.122253,486.081360 
	C298.570679,487.209259 300.372803,490.598633 303.519165,492.938354 
	C305.162720,493.890289 305.260590,495.687622 306.771881,496.774963 
	C308.148529,498.221893 309.298309,499.442444 310.713318,500.836365 
	C312.594635,502.723724 314.576874,504.121887 315.807922,506.594360 
	C321.112213,510.574585 323.815826,516.495728 328.825073,520.758301 
	C330.809570,522.917297 332.723755,524.677979 334.771301,526.762573 
	C335.576691,528.728638 336.969147,529.720642 338.653442,530.862671 
	C342.438660,534.885864 345.953094,538.739807 349.702667,542.829041 
z"/>
<path fill="#363C4A" opacity="1.000000" stroke="none" 
	d="
M643.235352,482.672607 
	C642.766235,480.348633 641.046875,479.385864 639.358765,478.057831 
	C637.106934,474.408203 633.475342,472.483032 630.679626,469.767731 
	C627.899292,467.067413 627.339294,465.230438 630.474976,462.702911 
	C631.993530,461.478851 633.314819,460.010040 634.884338,458.354706 
	C636.136353,456.790802 637.379028,455.668213 638.719849,454.206238 
	C642.590027,450.297241 646.259033,446.628418 650.221191,442.821991 
	C653.899597,448.584320 651.418640,454.248138 648.772766,459.189423 
	C645.972473,464.419037 644.350159,469.712708 643.634949,475.461884 
	C643.218262,478.812195 646.959045,480.397552 646.970154,483.923401 
	C646.845154,484.388550 646.672302,484.478973 646.207153,484.583435 
	C645.735840,484.520203 645.556763,484.442932 645.240356,484.107300 
	C644.713501,483.389526 644.323975,482.930115 643.638977,482.397278 
	C643.277283,482.557526 643.210999,482.791107 643.235352,482.672607 
z"/>
<path fill="#424A58" opacity="1.000000" stroke="none" 
	d="
M375.095703,573.333496 
	C379.290558,575.341980 382.562378,578.768677 385.333527,582.726013 
	C393.899200,594.958130 404.908630,605.013672 414.982697,615.898682 
	C416.230072,617.246460 417.761627,618.252563 417.998535,620.615784 
	C414.609772,619.761841 411.415039,617.983521 407.584900,617.846985 
	C405.001495,617.754944 402.816620,617.662476 400.675537,619.570007 
	C398.308594,621.678711 395.618286,621.296082 392.980225,619.617798 
	C393.350098,618.950256 393.433197,618.567871 393.666595,618.414673 
	C396.113495,616.809448 400.560089,618.580811 401.307587,614.245239 
	C401.967712,610.416504 397.605225,603.755066 393.788849,601.886414 
	C389.524292,599.798462 389.105988,594.872192 386.413879,591.600769 
	C384.440918,589.203308 383.035339,584.399231 379.661804,590.443787 
	C379.314362,591.066345 378.730774,591.515381 378.025116,591.060730 
	C377.038391,590.424988 376.885681,589.253906 377.294128,588.389893 
	C379.848724,582.986450 377.335632,578.375977 375.095703,573.333496 
z"/>
<path fill="#3E3946" opacity="1.000000" stroke="none" 
	d="
M555.549438,363.059631 
	C553.816284,367.289825 549.856323,369.981140 546.705811,373.341644 
	C538.065979,382.557343 529.119080,391.484711 520.446045,400.670013 
	C517.657837,403.622894 515.544922,403.808136 512.656189,400.765442 
	C503.965302,391.611328 495.072937,382.648468 486.176208,373.288605 
	C492.799805,375.528503 496.757172,381.355957 501.311615,386.302521 
	C505.027710,390.338562 509.012482,394.109344 512.643799,398.209473 
	C515.434265,401.360229 517.852722,401.093262 520.463318,398.051239 
	C529.782227,387.192413 540.224609,377.415833 550.268799,367.256226 
	C551.776917,365.730835 553.128723,363.983154 555.549438,363.059631 
z"/>
<path fill="#363C4A" opacity="1.000000" stroke="none" 
	d="
M518.883179,541.092285 
	C524.650513,546.441040 530.236877,552.027344 535.771240,557.664856 
	C536.802429,558.715271 537.529358,560.108276 539.645996,560.074036 
	C539.296814,562.087524 537.791504,563.697998 535.983948,561.990112 
	C531.333069,557.595642 524.821533,555.037231 522.365173,548.415588 
	C521.833862,546.983398 520.580627,546.016357 519.243347,545.295776 
	C517.219604,544.205383 517.205017,542.899109 518.883179,541.092285 
z"/>
<path fill="#424A58" opacity="1.000000" stroke="none" 
	d="
M375.492493,612.357666 
	C381.659546,607.709167 384.763824,610.772095 385.943878,616.653137 
	C386.035248,617.108521 386.057281,617.665588 385.875580,618.069214 
	C385.516724,618.866394 376.118835,619.273743 374.920380,618.467407 
	C371.825470,616.385010 374.292999,614.545410 375.492493,612.357666 
z"/>
<path fill="#3E3946" opacity="1.000000" stroke="none" 
	d="
M465.798950,351.907349 
	C461.289398,349.409302 458.350281,344.861053 454.463318,341.286530 
	C448.882385,336.154083 449.032349,336.034912 443.634827,341.677307 
	C441.353912,344.061676 438.961151,346.339081 436.304474,348.743134 
	C437.849701,343.750458 441.954407,340.504547 445.704010,336.996704 
	C447.273376,335.528503 449.451080,334.763977 451.157928,336.312653 
	C456.369080,341.040802 463.134552,344.325409 465.798950,351.907349 
z"/>
<path fill="#3E3946" opacity="1.000000" stroke="none" 
	d="
M446.305054,391.268860 
	C444.617126,389.093445 443.604218,386.883057 441.345093,385.272095 
	C436.370148,380.209412 431.650940,375.324982 426.951019,370.422089 
	C425.474762,368.882050 423.652374,367.579132 423.171295,364.900879 
	C432.352722,372.438690 440.387878,381.542877 448.773529,390.687134 
	C448.204437,391.632355 447.454376,391.745636 446.305054,391.268860 
z"/>
<path fill="#515B6A" opacity="1.000000" stroke="none" 
	d="
M528.543091,596.232056 
	C526.044556,601.400146 521.373413,604.930115 517.067078,608.766357 
	C515.514038,610.149841 513.614319,609.918152 512.133850,608.362305 
	C508.479736,604.522278 504.236816,601.231628 501.218689,596.438354 
	C505.646393,597.954834 508.199249,602.010254 511.447327,605.213196 
	C514.004150,607.734436 515.845581,607.906372 518.443848,605.291321 
	C521.557983,602.157043 524.164307,598.417603 528.543091,596.232056 
z"/>
<path fill="#C5C6C5" opacity="1.000000" stroke="none" 
	d="
M652.388306,440.022949 
	C655.243164,433.612946 661.242859,429.579956 666.052124,424.531403 
	C668.585388,421.872101 668.799194,420.026215 666.100525,417.367065 
	C670.999146,420.375153 671.053833,421.020355 667.102661,425.037689 
	C662.264099,429.957184 657.502625,434.952545 652.388306,440.022949 
z"/>
<path fill="#C5C6C5" opacity="1.000000" stroke="none" 
	d="
M660.340393,410.888916 
	C655.853821,408.417114 652.563660,404.220062 649.051270,400.385315 
	C645.890930,396.935089 643.377563,396.443268 639.945312,400.035370 
	C643.930725,393.904205 644.207336,393.852325 649.314026,399.094879 
	C653.004578,402.883698 656.617065,406.748627 660.340393,410.888916 
z"/>
<path fill="#424A58" opacity="1.000000" stroke="none" 
	d="
M359.979370,556.309204 
	C364.316956,558.008057 367.288391,561.442078 369.900909,565.672913 
	C366.441193,564.612976 363.614807,561.223206 359.045685,562.563110 
	C357.708649,562.955200 357.259460,561.353699 358.176422,560.143982 
	C358.983215,559.079529 359.813446,558.063293 359.979370,556.309204 
z"/>
<path fill="#515B6A" opacity="1.000000" stroke="none" 
	d="
M584.906738,553.386841 
	C577.424377,548.303528 577.429932,548.309448 570.168823,555.124939 
	C569.458984,555.791199 568.626282,556.326599 567.541748,557.015320 
	C568.713684,552.411743 572.336487,549.116394 576.312012,547.301758 
	C580.896606,545.209167 583.145996,549.373718 584.906738,553.386841 
z"/>
<path fill="#3E3946" opacity="1.000000" stroke="none" 
	d="
M582.810303,338.524902 
	C580.363098,338.595123 578.727112,340.165802 577.066101,341.899933 
	C573.621765,345.495850 570.055786,348.975189 566.234741,352.610168 
	C568.576416,345.975555 574.543579,342.212616 579.582397,337.640594 
	C580.477722,336.828156 581.783630,337.226379 582.810303,338.524902 
z"/>
<path fill="#424A58" opacity="1.000000" stroke="none" 
	d="
M656.813171,594.337769 
	C658.530823,592.690063 660.078735,591.243530 661.794067,590.034485 
	C663.098755,589.114868 664.400146,589.361450 664.717773,591.140503 
	C665.140625,593.509277 663.593079,594.818481 661.684204,595.580750 
	C659.931152,596.280945 657.727966,598.272034 656.813171,594.337769 
z"/>
<path fill="#515B6A" opacity="1.000000" stroke="none" 
	d="
M495.841431,590.396118 
	C490.665009,586.698730 486.152985,581.993835 481.963196,576.567261 
	C487.956299,579.413391 492.463684,584.161682 495.841431,590.396118 
z"/>
<path fill="#3E3946" opacity="1.000000" stroke="none" 
	d="
M481.782593,367.940796 
	C476.566437,365.124878 472.789886,360.424713 468.870544,355.438629 
	C474.515961,357.787506 478.471008,362.326416 481.782593,367.940796 
z"/>
<path fill="#424A58" opacity="1.000000" stroke="none" 
	d="
M706.403076,581.801636 
	C710.407654,580.484314 714.343140,581.109314 718.253784,581.139954 
	C719.057190,581.146240 720.028931,581.467163 719.792908,582.536987 
	C719.689087,583.007874 718.805054,583.736694 718.433228,583.652344 
	C714.424500,582.742493 710.053467,584.605530 706.403076,581.801636 
z"/>
<path fill="#A09DA1" opacity="1.000000" stroke="none" 
	d="
M697.748535,463.298370 
	C694.680603,468.360260 690.506592,472.825989 685.577087,477.000427 
	C688.745422,472.023712 692.705444,467.371918 697.748535,463.298370 
z"/>
<path fill="#515B6A" opacity="1.000000" stroke="none" 
	d="
M477.688812,571.764587 
	C472.644196,568.904114 468.839020,564.403625 465.123901,559.440796 
	C470.379303,562.085632 474.400269,566.361877 477.688812,571.764587 
z"/>
<path fill="#363C4A" opacity="1.000000" stroke="none" 
	d="
M355.327515,421.238678 
	C358.322235,424.150482 361.096466,427.246582 364.012390,430.649811 
	C357.676300,429.349396 354.462128,425.962250 355.327515,421.238678 
z"/>
<path fill="#3E3946" opacity="1.000000" stroke="none" 
	d="
M598.007446,353.397034 
	C593.251465,350.304718 589.510010,345.755432 585.307251,341.266602 
	C591.188599,343.160889 594.933533,347.725189 598.007446,353.397034 
z"/>
<path fill="#C5C6C5" opacity="1.000000" stroke="none" 
	d="
M634.626465,405.009094 
	C632.746216,410.112152 627.942200,413.041504 623.964294,417.078491 
	C625.941711,412.051941 631.070251,409.429871 634.626465,405.009094 
z"/>
<path fill="#3E3946" opacity="1.000000" stroke="none" 
	d="
M604.635620,367.983337 
	C606.985657,364.727814 606.229248,361.950134 603.075928,359.368103 
	C601.838501,358.354858 600.909546,356.964783 599.704346,355.416077 
	C603.214783,355.652649 605.356445,358.360992 607.027710,361.122864 
	C608.562195,363.658875 608.795898,366.598480 604.635620,367.983337 
z"/>
<path fill="#ADADAF" opacity="1.000000" stroke="none" 
	d="
M657.204712,496.299255 
	C651.187012,496.754761 649.194946,492.255219 647.232544,487.312775 
	C647.946838,486.697662 648.581177,486.943207 649.353760,487.768341 
	C652.074158,490.703674 654.581116,493.347229 657.204712,496.299255 
z"/>
<path fill="#A09DA1" opacity="1.000000" stroke="none" 
	d="
M684.815979,477.417358 
	C683.107910,481.320007 679.547180,483.920258 676.054199,486.949158 
	C677.573669,482.865387 681.342468,480.478607 684.815979,477.417358 
z"/>
<path fill="#3E3946" opacity="1.000000" stroke="none" 
	d="
M589.090332,384.186768 
	C591.241272,380.494232 594.270813,377.580658 597.690063,374.680176 
	C597.228027,379.123444 593.291748,381.023285 590.122559,383.986450 
	C589.657471,384.238434 589.482910,384.297821 589.090332,384.186768 
z"/>
<path fill="#A09DA1" opacity="1.000000" stroke="none" 
	d="
M681.330566,535.922485 
	C682.433899,531.962036 685.841614,529.655029 689.263611,526.974731 
	C687.684204,530.510742 684.608887,533.109070 681.330566,535.922485 
z"/>
<path fill="#C5C6C5" opacity="1.000000" stroke="none" 
	d="
M609.908569,431.014099 
	C608.894775,434.515961 605.793457,436.528748 602.825439,439.018250 
	C604.237244,435.863281 607.195557,433.722687 609.908569,431.014099 
z"/>
<path fill="#616A79" opacity="1.000000" stroke="none" 
	d="
M342.909973,479.673492 
	C339.213196,478.396576 336.441254,475.792114 334.986328,471.505859 
	C338.392059,473.088562 340.666565,476.154907 342.909973,479.673492 
z"/>
<path fill="#A09DA1" opacity="1.000000" stroke="none" 
	d="
M690.119263,526.448669 
	C690.964722,522.564941 693.937622,520.183044 697.635010,518.068726 
	C696.030212,521.292908 693.040527,523.643799 690.119263,526.448669 
z"/>
<path fill="#616A79" opacity="1.000000" stroke="none" 
	d="
M307.635376,466.011414 
	C306.663696,469.662720 303.982605,472.112946 300.110657,473.826569 
	C301.522461,470.563721 304.194824,468.127838 307.635376,466.011414 
z"/>
<path fill="#515B6A" opacity="1.000000" stroke="none" 
	d="
M454.763306,548.407837 
	C452.009766,547.695374 449.935120,549.458984 447.401917,550.758423 
	C448.873993,547.819031 450.317719,543.866516 454.763306,548.407837 
z"/>
<path fill="#3E3946" opacity="1.000000" stroke="none" 
	d="
M429.395905,355.076447 
	C428.218353,357.538757 426.040436,359.383331 423.425293,361.241089 
	C423.777039,358.034180 425.777252,355.963409 429.395905,355.076447 
z"/>
<path fill="#424A58" opacity="1.000000" stroke="none" 
	d="
M370.055542,567.301025 
	C371.551849,567.323608 372.742279,568.185547 373.822906,569.732910 
	C374.299286,570.788025 374.590790,571.578430 374.953003,572.676819 
	C372.266022,572.242126 370.508209,570.571472 370.055542,567.301025 
z"/>
<path fill="#363C4A" opacity="1.000000" stroke="none" 
	d="
M365.180908,432.641663 
	C367.424469,433.447815 369.053375,435.332611 370.653503,437.656006 
	C367.556549,437.839600 365.507690,436.426788 365.180908,432.641663 
z"/>
<path fill="#424A58" opacity="1.000000" stroke="none" 
	d="
M659.512451,576.949768 
	C659.812378,578.365967 660.201660,579.775024 658.677246,580.101562 
	C657.377258,580.380005 657.127808,579.104431 657.159363,578.115723 
	C657.204407,576.704407 657.415710,575.260132 659.512451,576.949768 
z"/>
<path fill="#515B6A" opacity="1.000000" stroke="none" 
	d="
M591.759338,560.504639 
	C589.072754,560.093201 587.523010,558.063782 586.251953,555.373779 
	C588.800781,555.960876 590.539124,557.766296 591.759338,560.504639 
z"/>
<path fill="#C5C6C5" opacity="1.000000" stroke="none" 
	d="
M622.896973,417.771362 
	C621.945312,419.909241 620.133423,421.552979 617.759216,423.019745 
	C618.686401,420.871124 620.551575,419.262299 622.896973,417.771362 
z"/>
<path fill="#A09DA1" opacity="1.000000" stroke="none" 
	d="
M671.722473,491.202515 
	C671.286255,493.818176 669.288330,495.449127 666.725586,496.950073 
	C667.365173,494.509064 669.422302,492.937469 671.722473,491.202515 
z"/>
<path fill="#565E6D" opacity="1.000000" stroke="none" 
	d="
M380.920135,518.665588 
	C378.166595,518.164429 376.302643,516.287231 375.153687,513.232910 
	C377.760773,513.906433 379.641541,515.756958 380.920135,518.665588 
z"/>
<path fill="#616A79" opacity="1.000000" stroke="none" 
	d="
M328.883331,464.687439 
	C326.169769,464.144348 324.295563,462.279510 323.112793,459.254791 
	C325.602051,460.046997 327.545288,461.835846 328.883331,464.687439 
z"/>
<path fill="#C5C6C5" opacity="1.000000" stroke="none" 
	d="
M665.875000,416.697449 
	C663.308105,416.426910 662.225220,414.228882 660.881348,411.898865 
	C663.214294,412.395874 664.319397,414.584381 665.875000,416.697449 
z"/>
<path fill="#424A58" opacity="1.000000" stroke="none" 
	d="
M674.693176,578.341736 
	C676.173401,576.859924 677.120789,577.738403 677.916565,578.848572 
	C678.324402,579.417419 678.243164,580.217224 677.498352,580.397095 
	C676.033813,580.750732 675.024292,580.098450 674.693176,578.341736 
z"/>
<path fill="#515B6A" opacity="1.000000" stroke="none" 
	d="
M566.771729,557.279785 
	C566.276062,559.543213 564.453857,560.996399 562.315735,562.510742 
	C562.419189,559.936951 563.842712,558.142334 566.771729,557.279785 
z"/>
<path fill="#424A58" opacity="1.000000" stroke="none" 
	d="
M737.069580,585.087280 
	C735.501343,585.654663 734.683838,585.115601 734.575562,583.733643 
	C734.520935,583.036011 735.066956,582.508423 735.762146,582.579041 
	C737.128357,582.717712 737.683777,583.522644 737.069580,585.087280 
z"/>
<path fill="#363C4A" opacity="1.000000" stroke="none" 
	d="
M541.919678,558.879700 
	C542.655762,557.053833 543.655640,555.070557 546.312378,554.403076 
	C546.459167,557.155090 544.849487,558.461731 541.919678,558.879700 
z"/>
<path fill="#424A58" opacity="1.000000" stroke="none" 
	d="
M738.922119,560.931030 
	C737.564575,561.577454 736.808167,561.204773 736.725342,559.941345 
	C736.678772,559.229980 737.221680,558.684937 737.934326,558.734192 
	C739.191711,558.821106 739.575317,559.571655 738.922119,560.931030 
z"/>
<path fill="#A09DA1" opacity="1.000000" stroke="none" 
	d="
M664.490906,498.863617 
	C663.606812,500.739014 662.209412,501.659454 660.290771,499.112549 
	C661.462402,499.258331 662.776794,499.540497 664.490906,498.863617 
z"/>
<path fill="#A09DA1" opacity="1.000000" stroke="none" 
	d="
M698.263916,517.823486 
	C698.265991,516.170044 699.369812,514.992798 701.136597,513.978516 
	C701.176636,515.668396 699.833130,516.656799 698.263916,517.823486 
z"/>
<path fill="#515B6A" opacity="1.000000" stroke="none" 
	d="
M481.699097,575.793945 
	C480.048187,575.562378 478.837677,574.452942 477.974640,572.560181 
	C479.903687,572.439575 481.160950,573.502991 481.699097,575.793945 
z"/>
<path fill="#A09DA1" opacity="1.000000" stroke="none" 
	d="
M649.487976,487.786499 
	C648.924072,487.777771 648.280945,487.495392 647.408325,487.088257 
	C646.933167,486.723022 646.687622,486.482483 646.253906,486.066895 
	C645.675415,485.640564 645.509949,485.284729 645.761414,484.563843 
	C646.130798,484.293640 646.308167,484.283905 646.751709,484.286194 
	C647.814880,485.369720 648.611816,486.441315 649.487976,487.786499 
z"/>
<path fill="#A09DA1" opacity="1.000000" stroke="none" 
	d="
M719.819702,468.717743 
	C718.055237,468.618652 716.819092,467.503754 716.035828,465.449432 
	C717.634705,465.736572 718.790649,466.951538 719.819702,468.717743 
z"/>
<path fill="#616A79" opacity="1.000000" stroke="none" 
	d="
M294.723083,478.153442 
	C294.685394,479.243317 294.343719,480.420624 293.892883,481.961853 
	C291.759644,480.616425 292.162994,479.284607 294.723083,478.153442 
z"/>
<path fill="#A09DA1" opacity="1.000000" stroke="none" 
	d="
M706.787476,455.815491 
	C705.938538,456.354248 705.013428,456.660583 703.810791,457.055420 
	C704.154663,455.731903 704.696045,454.156952 706.787476,455.815491 
z"/>
<path fill="#424A58" opacity="1.000000" stroke="none" 
	d="
M435.913391,657.114624 
	C435.331543,658.184814 434.489349,659.097473 433.386719,660.193359 
	C433.368866,658.793579 432.743439,656.569275 435.913391,657.114624 
z"/>
<path fill="#616A79" opacity="1.000000" stroke="none" 
	d="
M671.381653,547.919128 
	C671.112488,546.302795 672.299316,545.323059 673.744385,544.192017 
	C673.879211,545.705383 673.294556,547.080811 671.381653,547.919128 
z"/>
<path fill="#616A79" opacity="1.000000" stroke="none" 
	d="
M316.596008,456.856445 
	C316.302673,458.219269 315.291840,459.280273 313.498566,459.948303 
	C313.462524,458.264862 314.652527,457.397736 316.596008,456.856445 
z"/>
<path fill="#515B6A" opacity="1.000000" stroke="none" 
	d="
M396.941254,534.677612 
	C395.279510,534.606018 394.270660,533.546692 394.028564,531.411377 
	C395.350555,531.817444 396.370819,532.858643 396.941254,534.677612 
z"/>
<path fill="#C5C6C5" opacity="1.000000" stroke="none" 
	d="
M616.634399,423.996643 
	C616.766235,425.345734 615.942993,426.300598 614.239441,426.884308 
	C614.725159,426.012512 615.539490,425.074677 616.634399,423.996643 
z"/>
<path fill="#515B6A" opacity="1.000000" stroke="none" 
	d="
M534.582764,590.208740 
	C534.718689,591.473145 533.924988,592.298218 532.426880,592.842896 
	C532.384949,591.634583 533.041992,590.712769 534.582764,590.208740 
z"/>
<path fill="#363C4A" opacity="1.000000" stroke="none" 
	d="
M602.126587,370.566040 
	C602.280151,370.045593 602.465210,369.763641 602.889832,369.387146 
	C603.336975,370.158905 604.169922,371.188324 603.207642,371.853729 
	C602.480530,372.356506 602.304810,371.388000 602.126587,370.566040 
z"/>
<path fill="#3E3946" opacity="1.000000" stroke="none" 
	d="
M484.815613,370.904358 
	C483.446533,370.966919 482.630341,369.929443 481.791016,368.486755 
	C483.219727,368.320160 484.379303,368.936401 484.815613,370.904358 
z"/>
<path fill="#616A79" opacity="1.000000" stroke="none" 
	d="
M331.772766,467.734314 
	C330.573395,467.656189 329.592590,466.951904 329.081421,465.324585 
	C330.284180,465.382568 331.296875,466.061981 331.772766,467.734314 
z"/>
<path fill="#3E3946" opacity="1.000000" stroke="none" 
	d="
M468.827759,354.890137 
	C467.370911,355.066620 466.570709,354.005981 465.803711,352.475433 
	C467.231628,352.316833 468.388580,352.933899 468.827759,354.890137 
z"/>
<path fill="#A09DA1" opacity="1.000000" stroke="none" 
	d="
M723.717896,472.765045 
	C722.506287,472.745850 721.576477,472.017761 721.034912,470.449524 
	C722.195923,470.524323 723.067810,471.324829 723.717896,472.765045 
z"/>
<path fill="#616A79" opacity="1.000000" stroke="none" 
	d="
M297.707031,475.296112 
	C297.649963,476.483429 296.937500,477.416534 295.363647,477.933044 
	C295.396240,476.743469 296.028961,475.726654 297.707031,475.296112 
z"/>
<path fill="#A09DA1" opacity="1.000000" stroke="none" 
	d="
M711.274780,503.847961 
	C711.244934,502.627563 711.933777,501.653687 713.517517,501.069763 
	C713.064575,501.904633 712.313538,502.827057 711.274780,503.847961 
z"/>
<path fill="#A09DA1" opacity="1.000000" stroke="none" 
	d="
M729.169922,483.749756 
	C729.434875,482.990967 729.944031,482.164246 730.706055,481.179382 
	C731.319214,482.416321 730.292236,483.005890 729.169922,483.749756 
z"/>
<path fill="#A09DA1" opacity="1.000000" stroke="none" 
	d="
M551.695557,494.089417 
	C551.783813,495.328705 551.104858,496.332214 549.501221,496.968628 
	C549.453735,495.741699 550.421387,494.969696 551.695557,494.089417 
z"/>
<path fill="#515B6A" opacity="1.000000" stroke="none" 
	d="
M458.873413,552.342896 
	C457.753448,552.389954 457.052307,551.583435 456.418762,550.357361 
	C457.592224,550.232849 458.510620,550.767273 458.873413,552.342896 
z"/>
<path fill="#A09DA1" opacity="1.000000" stroke="none" 
	d="
M719.228577,495.410217 
	C719.253235,494.983795 719.624634,494.525055 720.197998,493.967896 
	C720.210327,494.326782 719.919556,494.771851 719.862305,495.245239 
	C719.815247,495.634308 720.045166,496.056946 720.152222,496.464722 
	C720.348633,496.308441 720.545044,496.152130 720.741394,495.995850 
	C720.352722,495.789856 719.964050,495.583893 719.228577,495.410217 
z"/>
<path fill="#363C4A" opacity="1.000000" stroke="none" 
	d="
M624.580139,541.756042 
	C624.523254,542.280884 624.288696,542.763916 623.859741,543.429077 
	C623.400330,542.780396 622.959106,541.881042 624.580139,541.756042 
z"/>
<path fill="#ADADAF" opacity="1.000000" stroke="none" 
	d="
M576.962341,468.629456 
	C576.545044,469.236420 576.176880,469.514557 575.602295,469.896912 
	C575.119385,468.845673 575.452148,467.897614 576.676270,467.064087 
	C576.994202,467.420532 577.002869,467.860565 576.962341,468.629456 
z"/>
<path fill="#3E3946" opacity="1.000000" stroke="none" 
	d="
M432.405273,352.126740 
	C432.445496,353.181976 431.644348,353.835266 430.388702,354.459290 
	C430.317657,353.403748 430.806152,352.460602 432.405273,352.126740 
z"/>
<path fill="#331D28" opacity="1.000000" stroke="none" 
	d="
M588.608337,384.136780 
	C588.872437,384.016296 589.352417,384.104584 589.592285,384.141785 
	C589.837402,384.574097 589.842712,384.969147 589.819336,385.660278 
	C589.352966,385.936523 588.915222,385.916656 588.146606,385.887238 
	C587.991943,385.337524 588.168091,384.797394 588.608337,384.136780 
z"/>
<path fill="#565E6D" opacity="1.000000" stroke="none" 
	d="
M357.932617,494.681763 
	C357.449982,494.473480 356.848145,493.995758 356.142975,493.237061 
	C356.630890,493.441498 357.222168,493.926910 357.932617,494.681763 
z"/>
<path fill="#C5C6C5" opacity="1.000000" stroke="none" 
	d="
M612.670288,428.013428 
	C612.497803,428.547546 612.049622,429.192139 611.306091,429.921448 
	C611.471985,429.378693 611.933289,428.751282 612.670288,428.013428 
z"/>
<path fill="#ADADAF" opacity="1.000000" stroke="none" 
	d="
M590.783752,451.202087 
	C590.628235,451.746155 590.184326,452.355438 589.452881,453.030670 
	C589.608582,452.486847 590.052002,451.877045 590.783752,451.202087 
z"/>
<path fill="#A09DA1" opacity="1.000000" stroke="none" 
	d="
M702.927795,457.663879 
	C702.786682,458.031952 702.421875,458.454498 701.866943,458.968628 
	C702.019226,458.612946 702.361633,458.165680 702.927795,457.663879 
z"/>
<path fill="#616A79" opacity="1.000000" stroke="none" 
	d="
M334.726746,470.781952 
	C334.277222,470.562897 333.738861,470.073029 333.090210,469.324951 
	C333.532623,469.548218 334.085297,470.029663 334.726746,470.781952 
z"/>
<path fill="#A09DA1" opacity="1.000000" stroke="none" 
	d="
M715.767578,464.786133 
	C715.288818,464.594879 714.721130,464.135315 714.059204,463.408813 
	C714.536133,463.600525 715.107483,464.059174 715.767578,464.786133 
z"/>
<path fill="#ADADAF" opacity="1.000000" stroke="none" 
	d="
M587.846680,454.286499 
	C587.678040,454.834198 587.221313,455.419434 586.479431,456.059387 
	C586.649048,455.517395 587.103821,454.920746 587.846680,454.286499 
z"/>
<path fill="#515B6A" opacity="1.000000" stroke="none" 
	d="
M594.829102,563.603333 
	C594.391235,563.441406 593.856445,563.048462 593.284668,562.399048 
	C593.742554,562.552429 594.237366,562.962402 594.829102,563.603333 
z"/>
<path fill="#A09DA1" opacity="1.000000" stroke="none" 
	d="
M727.239441,485.679993 
	C727.421570,485.217010 727.863953,484.670746 728.560791,484.026428 
	C728.376648,484.484497 727.938110,485.040588 727.239441,485.679993 
z"/>
<path fill="#3E3946" opacity="1.000000" stroke="none" 
	d="
M557.666382,361.087830 
	C557.449463,361.547485 556.975891,362.126892 556.225220,362.785248 
	C556.435364,362.311981 556.922546,361.759796 557.666382,361.087830 
z"/>
<path fill="#3E3946" opacity="1.000000" stroke="none" 
	d="
M562.502441,356.092377 
	C562.332214,356.557831 561.925232,357.161499 561.250244,357.861115 
	C561.410095,357.381592 561.837891,356.806122 562.502441,356.092377 
z"/>
<path fill="#3E3946" opacity="1.000000" stroke="none" 
	d="
M485.925751,372.645599 
	C485.633179,372.474579 485.232269,372.039246 484.832397,371.293091 
	C485.161469,371.448578 485.489441,371.914948 485.925751,372.645599 
z"/>
<path fill="#363C4A" opacity="1.000000" stroke="none" 
	d="
M600.502319,374.493042 
	C600.508606,374.511719 600.495972,374.474335 600.502319,374.493042 
z"/>
<path fill="#565E6D" opacity="1.000000" stroke="none" 
	d="
M359.889221,497.775177 
	C359.768311,497.793274 359.521576,497.595123 359.166809,497.163422 
	C359.272797,497.167145 359.507660,497.376831 359.889221,497.775177 
z"/>
<path fill="#A09DA1" opacity="1.000000" stroke="none" 
	d="
M718.513550,499.475952 
	C718.500244,499.447571 718.526794,499.504333 718.513550,499.475952 
z"/>
<path fill="#424955" opacity="1.000000" stroke="none" 
	d="
M578.911865,658.125732 
	C576.362793,657.483887 572.161438,659.231628 572.154785,655.875671 
	C572.148987,652.940125 576.467529,653.163574 579.009460,652.423645 
	C580.128723,652.097961 581.531494,652.746338 583.193359,653.121155 
	C582.514404,655.232178 580.879395,656.644470 578.911865,658.125732 
z"/>
<path fill="#424955" opacity="1.000000" stroke="none" 
	d="
M443.109497,653.208435 
	C443.589905,652.352539 444.190369,651.216980 445.157928,652.078857 
	C445.921143,652.758728 445.102020,653.406677 444.163239,653.925171 
	C443.628754,653.884155 443.398926,653.677856 443.109497,653.208435 
z"/>
<path fill="#331D28" opacity="1.000000" stroke="none" 
	d="
M470.617493,505.876526 
	C474.267365,504.126099 476.492188,501.167023 478.895081,498.475311 
	C490.024994,486.008209 502.395020,474.698975 513.191956,461.487488 
	C513.039124,459.820343 513.618713,458.960327 515.197571,458.493713 
	C521.744263,455.253906 525.536011,449.399261 530.232605,444.574890 
	C547.463257,426.875549 564.435669,408.924957 581.525391,391.088165 
	C582.317993,390.260864 583.304199,389.619080 584.538147,388.826416 
	C584.898926,389.574707 584.921814,390.387482 584.942993,391.605042 
	C585.418640,393.590363 584.772339,394.916901 584.044128,396.257385 
	C579.439575,404.732971 574.159668,412.547241 566.955505,419.252563 
	C559.397705,426.287048 553.148376,434.609802 546.798645,442.841705 
	C539.768311,451.955994 532.596252,461.103271 524.336121,469.215790 
	C519.101562,474.356812 512.524597,477.751099 506.560699,481.943176 
	C505.345337,482.797485 503.807404,483.264679 502.798492,484.360596 
	C493.170380,494.818329 480.671539,502.240204 471.963074,513.693970 
	C469.039551,517.539062 464.699310,519.994629 461.231171,523.339111 
	C460.213867,524.320129 458.946503,524.654480 457.169861,524.283630 
	C456.321320,523.931030 455.916840,523.602722 455.364044,522.856995 
	C455.068146,522.276794 454.990997,522.026794 454.907471,521.388489 
	C458.853638,514.767517 463.458527,509.195465 470.617493,505.876526 
z"/>
<path fill="#2A2D3C" opacity="1.000000" stroke="none" 
	d="
M445.803894,391.368683 
	C446.699066,391.035614 447.413574,391.045258 448.483521,391.032288 
	C448.838959,391.009674 448.976959,391.012329 448.977448,391.081329 
	C450.169861,392.169373 451.340515,393.209229 452.429932,394.787170 
	C463.331238,403.950623 472.295471,414.591187 481.895172,424.582153 
	C484.768646,427.572723 489.054016,429.538483 490.028625,434.539917 
	C485.915802,436.303833 484.133179,440.310455 481.113983,442.942902 
	C479.151489,444.654053 477.460663,446.676758 475.353485,448.676361 
	C475.105377,448.463104 475.034363,448.035645 475.215515,447.817932 
	C480.660980,441.273041 476.887970,436.796692 472.153015,432.022583 
	C466.823303,426.648712 461.982422,420.784424 456.742065,415.319946 
	C450.915070,409.243683 443.622833,402.197235 445.803894,391.368683 
z"/>
<path fill="#C8463A" opacity="1.000000" stroke="none" 
	d="
M515.278198,458.233612 
	C514.967041,459.293152 514.391663,460.071014 513.568359,461.009155 
	C508.462555,463.718323 505.718903,460.192139 502.974213,457.329346 
	C499.965424,454.191071 496.706604,451.398132 493.320282,448.692932 
	C486.294128,443.079895 486.343048,443.018646 491.010498,435.242615 
	C499.408875,442.273651 507.543488,449.768799 515.278198,458.233612 
z"/>
<path fill="#3E3946" opacity="1.000000" stroke="none" 
	d="
M452.590088,394.756683 
	C450.878204,394.567993 449.705627,393.473724 449.044739,391.458618 
	C450.870789,391.489044 451.770203,392.911835 452.590088,394.756683 
z"/>
<path fill="#331D28" opacity="1.000000" stroke="none" 
	d="
M587.559265,385.899658 
	C587.677002,387.295685 586.994324,388.387024 585.111206,388.849365 
	C584.975586,387.427307 586.004395,386.621552 587.559265,385.899658 
z"/>
<path fill="#3E3946" opacity="1.000000" stroke="none" 
	d="
M587.322266,590.224609 
	C587.659241,590.068604 587.845581,590.161499 587.939636,590.208984 
	C590.510498,598.201416 588.258423,604.587097 581.808655,609.723511 
	C579.581604,611.497070 577.850952,613.751343 576.909607,616.539001 
	C576.245728,618.504944 574.870544,620.167114 573.197632,621.144226 
	C562.780762,627.228821 555.639221,636.974060 547.730164,645.484863 
	C540.925537,652.807373 532.118164,657.526123 525.783264,665.327942 
	C522.736084,669.080750 517.612183,672.179016 511.611389,670.954407 
	C509.592651,670.542358 507.593292,670.114380 506.240448,668.568970 
	C496.580292,657.533752 483.889648,649.946167 473.530457,639.749451 
	C468.028198,634.333496 463.548187,627.877991 458.038422,622.470886 
	C454.392761,618.893127 451.093811,615.027222 447.656311,611.297363 
	C443.242401,606.508057 437.949036,602.114807 436.911560,595.062622 
	C436.505066,592.299744 436.383301,589.494934 436.031097,586.353149 
	C435.957123,585.770813 435.983978,585.544556 436.046997,584.976624 
	C438.008209,585.416992 439.268524,587.015076 440.660126,588.429688 
	C463.994904,612.150452 487.396820,635.806335 510.554047,659.699341 
	C514.068298,663.325256 516.059509,662.933472 519.289612,659.606079 
	C541.770142,636.448730 564.401978,613.438293 587.322266,590.224609 
z"/>
<path fill="#2A2D3C" opacity="1.000000" stroke="none" 
	d="
M631.179321,524.832458 
	C625.327515,523.165100 622.419617,517.451172 617.852966,513.702332 
	C613.744873,510.329895 609.674561,506.916138 605.502258,503.614716 
	C603.054932,501.678192 601.180054,502.153839 598.758850,503.599640 
	C595.394836,505.608490 593.412476,509.758423 588.547180,510.002197 
	C591.077209,506.728943 593.969421,503.416077 596.978027,499.814209 
	C603.497864,494.002625 603.490356,494.009827 609.423889,500.184662 
	C613.187256,504.101044 616.976929,507.992188 621.001099,512.071045 
	C621.247437,512.247498 621.379395,512.378723 621.451294,512.319580 
	C622.156921,511.251587 622.749023,511.214630 622.822632,512.806030 
	C622.778137,514.606079 623.633606,515.595276 625.116333,516.393921 
	C625.656128,516.273865 625.865601,516.109436 625.781128,516.215515 
	C627.326355,519.157410 629.165405,521.828857 631.179321,524.832458 
z"/>
<path fill="#C5C6C5" opacity="1.000000" stroke="none" 
	d="
M625.474792,516.434692 
	C626.129028,515.472168 626.164795,513.858582 627.886230,513.954773 
	C628.042847,513.963440 628.330017,514.449585 628.291565,514.667236 
	C628.087708,515.823364 627.031067,515.917114 625.829590,516.365601 
	C625.487305,516.485962 625.502869,516.431091 625.474792,516.434692 
z"/>
<path fill="#C5C6C5" opacity="1.000000" stroke="none" 
	d="
M622.612427,513.137085 
	C622.076965,513.092224 621.800049,512.908813 621.523132,512.492920 
	C622.158813,511.961823 622.768799,511.236359 623.472839,512.046143 
	C623.543640,512.127563 623.084290,512.669983 622.612427,513.137085 
z"/>
<path fill="#2A2D3C" opacity="1.000000" stroke="none" 
	d="
M632.988770,526.643860 
	C632.130432,527.088501 631.374084,526.868408 631.258301,525.411194 
	C631.786743,525.531250 632.318359,525.933594 632.988770,526.643860 
z"/>
<path fill="#C5C6C5" opacity="1.000000" stroke="none" 
	d="
M638.594971,454.037720 
	C638.961792,456.199707 636.721680,456.527069 635.358643,457.954224 
	C635.315796,456.085541 636.558167,454.906067 638.594971,454.037720 
z"/>
<path fill="#616A79" opacity="1.000000" stroke="none" 
	d="
M334.913483,526.662354 
	C332.289185,526.055237 330.437683,524.194763 329.164917,521.298889 
	C331.832001,521.866028 333.681854,523.721619 334.913483,526.662354 
z"/>
<path fill="#616A79" opacity="1.000000" stroke="none" 
	d="
M315.981140,506.493683 
	C313.908203,505.572693 312.186829,503.942413 311.079254,501.327240 
	C313.659058,501.734253 315.385742,503.377808 315.981140,506.493683 
z"/>
<path fill="#616A79" opacity="1.000000" stroke="none" 
	d="
M306.922363,496.669983 
	C305.308807,496.548584 304.380096,495.389801 303.893677,493.413239 
	C305.583527,493.458221 306.416138,494.710602 306.922363,496.669983 
z"/>
<path fill="#2A2D3C" opacity="1.000000" stroke="none" 
	d="
M456.157013,522.570251 
	C462.557037,520.437317 466.516754,515.475952 470.931122,511.077576 
	C478.038452,503.996063 483.996033,495.647888 493.140167,490.807678 
	C495.350922,489.637451 496.065491,487.249207 497.640564,485.551453 
	C501.444855,481.450897 506.424164,478.994751 510.935059,475.960388 
	C518.717346,470.725525 525.753845,465.032410 531.268555,457.225281 
	C535.891357,450.680817 542.586243,445.535553 546.831848,438.804596 
	C552.941467,429.118347 561.256409,421.676178 569.119873,413.735016 
	C573.643250,409.166931 576.684814,403.717682 579.882874,398.297211 
	C581.143311,396.160828 582.323059,393.919006 584.666504,392.194458 
	C589.440369,394.438599 590.570923,398.922089 587.114746,403.056641 
	C579.247498,412.468018 571.287048,421.855438 561.718506,429.616089 
	C558.822693,431.964691 558.751343,435.615540 556.087402,438.201355 
	C545.635620,448.346710 535.667847,458.975922 528.477478,471.872925 
	C526.151672,476.044647 521.814453,478.630341 517.850830,480.549835 
	C510.478882,484.119843 504.478088,489.449554 498.742340,494.767822 
	C487.802307,504.911652 476.878723,515.038391 465.341309,524.502808 
	C458.917053,529.772827 454.781006,529.877869 447.909698,525.067871 
	C445.911743,523.669312 444.873291,522.103394 444.977234,519.331421 
	C446.062622,517.415405 447.479523,518.116333 449.168274,518.455566 
	C449.719757,518.587830 449.936737,518.646545 450.446838,518.863525 
	C451.068665,519.306885 451.373352,519.615601 451.899658,520.145142 
	C453.092804,520.750305 453.942566,521.336792 455.108917,521.972046 
	C455.536987,522.237244 455.710144,522.340027 456.157013,522.570251 
z"/>
<path fill="#3E3946" opacity="1.000000" stroke="none" 
	d="
M449.937500,519.812866 
	C448.282104,519.712097 446.957855,519.406738 445.299683,519.020020 
	C443.981873,516.962219 442.998016,514.985779 441.955750,512.692505 
	C442.436493,512.496948 442.975586,512.618164 443.790100,512.774475 
	C447.602203,511.623383 448.381897,514.831238 450.207794,516.948486 
	C450.493286,518.085510 450.588257,518.853271 449.937500,519.812866 
z"/>
<path fill="#565E6D" opacity="1.000000" stroke="none" 
	d="
M564.685425,533.749268 
	C564.774292,535.324097 563.997620,536.307861 562.300903,536.909363 
	C562.538513,536.018066 563.101929,535.057068 563.839111,533.800903 
	C564.012939,533.505737 564.467773,533.651123 564.685425,533.749268 
z"/>
<path fill="#565E6D" opacity="1.000000" stroke="none" 
	d="
M561.690308,537.061279 
	C561.524414,537.589478 561.068970,538.203674 560.335693,538.922119 
	C560.505432,538.400085 560.953064,537.773682 561.690308,537.061279 
z"/>
<path fill="#ADADAF" opacity="1.000000" stroke="none" 
	d="
M645.770142,484.134857 
	C645.971802,484.657196 645.990234,485.011017 646.037231,485.628326 
	C645.251648,485.656433 644.852295,485.138763 645.033569,484.061035 
	C645.103027,483.848938 645.586914,483.966309 645.770142,484.134857 
z"/>
<path fill="#ADADAF" opacity="1.000000" stroke="none" 
	d="
M643.319458,482.350739 
	C643.343506,482.323914 643.241699,482.591125 643.241699,482.591125 
	C643.241699,482.591125 643.195007,482.419220 643.260498,482.369873 
	C643.325928,482.320526 643.295349,482.377563 643.319458,482.350739 
z"/>
<path fill="#C8463A" opacity="1.000000" stroke="none" 
	d="
M449.377136,518.195801 
	C446.948639,517.007202 445.994629,514.891907 444.275604,513.067871 
	C443.035431,507.595734 438.371368,505.250153 435.157043,501.825623 
	C432.652191,499.156982 432.184998,497.490845 434.842957,494.418060 
	C441.480957,486.744080 448.698792,479.725403 456.342529,473.089935 
	C461.316254,468.772308 466.582886,469.493225 469.603485,475.517487 
	C471.225525,478.752441 472.657654,482.082062 474.456360,485.245605 
	C477.899292,491.300964 475.086853,496.706543 472.485992,502.101898 
	C471.989441,503.132050 471.519653,504.175110 471.010590,505.563354 
	C466.826935,511.430908 461.730011,516.057800 456.561157,521.061035 
	C453.205719,522.375793 451.729523,519.729126 449.377136,518.195801 
z"/>
<path fill="#EC5F48" opacity="1.000000" stroke="none" 
	d="
M537.069458,299.070435 
	C550.874329,284.842834 564.469604,270.904327 577.985718,256.889465 
	C583.916321,250.739975 584.166992,250.635468 590.166992,256.500275 
	C595.762146,261.969330 601.143250,267.669312 606.925659,272.930145 
	C610.234070,275.940186 609.977051,278.047729 607.009399,281.094727 
	C587.158325,301.476501 567.437927,321.985565 547.676758,342.454926 
	C546.752502,343.412415 545.813965,344.358612 544.933105,345.355164 
	C538.787109,352.308136 538.808411,352.295258 532.454102,345.844177 
	C526.986145,340.292816 521.676941,334.560425 515.905884,329.341187 
	C512.328308,326.105713 512.783875,323.757721 515.843384,320.708893 
	C522.916382,313.660583 529.842163,306.464569 537.069458,299.070435 
z"/>
<path fill="#565E6D" opacity="1.000000" stroke="none" 
	d="
M582.684448,515.069824 
	C582.779968,516.391296 582.010010,517.359131 580.378906,517.967896 
	C580.306885,516.653381 581.264343,515.842102 582.684448,515.069824 
z"/>
<path fill="#565E6D" opacity="1.000000" stroke="none" 
	d="
M598.623962,583.807129 
	C598.741638,582.790039 599.221313,582.609009 599.867920,583.083252 
	C600.055359,583.220703 600.204346,583.687195 600.112610,583.879883 
	C599.747986,584.645996 599.216064,584.547363 598.623962,583.807129 
z"/>
<path fill="#AC3C34" opacity="1.000000" stroke="none" 
	d="
M449.126526,518.223999 
	C451.670959,518.020020 453.451721,519.909302 455.965271,521.065796 
	C456.268890,521.418762 456.247467,521.588196 456.137970,521.949829 
	C454.662598,523.458496 453.283600,522.765381 451.552063,521.998169 
	C450.864777,521.748657 450.577026,521.556885 450.241028,521.042603 
	C450.138519,520.799377 449.930237,520.371765 449.768311,520.194580 
	C449.463348,519.507385 449.320343,518.997314 449.126526,518.223999 
z"/>
<path fill="#C8463A" opacity="1.000000" stroke="none" 
	d="
M456.165192,522.267151 
	C456.049896,522.141968 456.018677,522.181458 456.020294,522.204590 
	C456.021912,522.227722 456.241852,522.600281 456.336304,522.649048 
	C456.430756,522.697754 456.280487,522.392334 456.165192,522.267151 
z"/>
<path fill="#3E3946" opacity="1.000000" stroke="none" 
	d="
M450.280090,521.010864 
	C450.409027,521.006348 450.679565,521.213318 451.074890,521.645874 
	C450.940369,521.655090 450.681000,521.438660 450.280090,521.010864 
z"/>
</svg>